<svg width="346" height="322" viewBox="0 0 346 322" fill="none" xmlns="http://www.w3.org/2000/svg">
<rect width="346" height="322" rx="20" fill="#121212"/>
<path fill-rule="evenodd" clip-rule="evenodd" d="M256.972 36.191C279.952 38.4503 297.998 60.8415 297.998 88.1348C297.998 114.149 281.604 136.242 260.169 140.266C281.605 144.186 298 165.747 298 191.762C298 219.056 279.953 242.034 256.972 244.353V244.549H135.68L127.322 286H84.0666L93.7296 244.549H62.8888L48 206.984H99.5783L128.454 70.9741H166.132L153.744 36H256.972V36.191ZM142.092 206.984C142.313 206.984 201.815 206.982 225.82 206.984C226.536 206.984 227.317 206.862 228.139 206.629C238.084 206.076 245.998 196.746 245.998 184.903C245.997 172.917 237.89 163.16 227.776 162.804C227.268 162.691 226.79 162.632 226.351 162.632H176.437L159.05 120.197L142.092 206.984ZM187.428 118.902H227.239C237.511 118.901 245.838 109.042 245.838 96.8808C245.838 84.7193 237.511 74.8604 227.239 74.8601H171.658L187.428 118.902Z" fill="#EAE0C8"/>
</svg>
