<svg width="229" height="193" viewBox="0 0 229 193" fill="none" xmlns="http://www.w3.org/2000/svg">
<path d="M191 0.147461C212.004 1.89159 228.498 19.1776 228.498 40.248C228.498 60.3309 213.514 77.387 193.923 80.4932C213.515 83.5195 228.5 100.165 228.5 120.248C228.5 141.319 212.005 159.058 191 160.849V161H80.1396L72.5 193H32.9648L41.7969 161H13.6084L0 132H47.1426L73.5352 27H107.973L96.6504 0H191V0.147461ZM86 132C86.2024 132 140.587 131.998 162.527 132C163.182 132 163.895 131.905 164.647 131.726C173.737 131.299 180.97 124.096 180.97 114.953C180.969 105.7 173.56 98.1672 164.315 97.8926C163.851 97.8056 163.414 97.7598 163.013 97.7598H117.392L101.5 65L86 132ZM127.438 64H163.824C173.213 63.9998 180.824 56.3887 180.824 47C180.824 37.6113 173.213 30.0002 163.824 30H113.023L127.438 64Z" fill="white"/>
</svg>
