<svg width="20" height="22" viewBox="0 0 20 22" fill="none" xmlns="http://www.w3.org/2000/svg">
<path d="M18.6931 13.2809L14.7018 10.9955L18.5894 8.74924C18.9617 8.54803 19.2751 8.25592 19.4994 7.90102C19.7802 7.45214 19.8999 6.92357 19.8394 6.39985C19.7789 5.87612 19.5417 5.38748 19.1656 5.01206C18.7896 4.63664 18.2964 4.39612 17.765 4.32897C17.2337 4.26182 16.6947 4.37192 16.2345 4.64165L12.3948 6.88001V2.35617C12.3948 1.73127 12.1425 1.13197 11.6934 0.690106C11.2443 0.248239 10.6351 0 10 0C9.36486 0 8.75573 0.248239 8.30662 0.690106C7.85751 1.13197 7.6052 1.73127 7.6052 2.35617V6.88001L3.7336 4.64165C3.46143 4.4611 3.15444 4.33753 2.8317 4.27861C2.50895 4.21969 2.17734 4.22668 1.85745 4.29915C1.53757 4.37162 1.23624 4.50801 0.972182 4.69986C0.708123 4.89172 0.486971 5.13493 0.32246 5.4144C0.157949 5.69388 0.0535914 6.00364 0.0158672 6.32446C-0.0218569 6.64528 0.00785812 6.97031 0.103167 7.27935C0.198476 7.5884 0.357344 7.87487 0.569905 8.12097C0.782466 8.36708 1.04418 8.56756 1.3388 8.70997L5.33014 10.9955L1.37871 13.2417C1.00641 13.4429 0.693009 13.735 0.468689 14.0899C0.19171 14.5388 0.0750718 15.0658 0.137293 15.5873C0.199515 16.1089 0.437029 16.595 0.812128 16.9685C1.18723 17.3421 1.67841 17.5817 2.2077 17.6492C2.73699 17.7168 3.27404 17.6084 3.7336 17.3414L7.6052 15.1109V19.5562C7.58633 20.0583 7.73107 20.5531 8.01829 20.9685C8.30551 21.3839 8.72017 21.6981 9.20173 21.8652C9.56368 21.9911 9.95109 22.0296 10.3313 21.9773C10.7115 21.9251 11.0734 21.7837 11.3864 21.565C11.6995 21.3463 11.9545 21.0568 12.13 20.7209C12.3054 20.385 12.3963 20.0124 12.3948 19.6347V15.1109L16.2664 17.3493C16.5386 17.5298 16.8456 17.6534 17.1683 17.7123C17.491 17.7712 17.8227 17.7642 18.1425 17.6918C18.4624 17.6193 18.7638 17.4829 19.0278 17.291C19.2919 17.0992 19.513 16.856 19.6775 16.5765C19.8421 16.297 19.9464 15.9873 19.9841 15.6664C20.0219 15.3456 19.9921 15.0206 19.8968 14.7116C19.8015 14.4025 19.6427 14.116 19.4301 13.8699C19.2175 13.6238 18.9558 13.4233 18.6612 13.2809H18.6931ZM18.1743 15.7078C18.1214 15.7971 18.0512 15.8753 17.9676 15.9379C17.884 16.0005 17.7887 16.0462 17.6871 16.0725C17.5855 16.0988 17.4796 16.1051 17.3756 16.091C17.2715 16.0769 17.1713 16.0428 17.0806 15.9905L10.7983 12.3699V19.6347C10.7983 19.843 10.7142 20.0428 10.5645 20.1901C10.4148 20.3374 10.2117 20.4201 10 20.4201C9.78829 20.4201 9.58524 20.3374 9.43554 20.1901C9.28584 20.0428 9.20173 19.843 9.20173 19.6347V12.3699L2.91937 15.9905C2.73929 16.0706 2.53542 16.0821 2.34721 16.0228C2.159 15.9635 1.99983 15.8377 1.90051 15.6696C1.80118 15.5015 1.76875 15.3031 1.8095 15.1129C1.85025 14.9226 1.96128 14.754 2.1211 14.6397L8.40347 10.9955L2.09715 7.35124C1.99537 7.30599 1.90437 7.24022 1.83005 7.15819C1.75572 7.07616 1.69971 6.97969 1.66566 6.87503C1.6316 6.77037 1.62024 6.65984 1.63233 6.55059C1.64441 6.44134 1.67966 6.3358 1.7358 6.2408C1.79194 6.1458 1.86772 6.06344 1.95824 5.99906C2.04876 5.93468 2.15201 5.8897 2.26131 5.86704C2.3706 5.84438 2.48351 5.84454 2.59274 5.86751C2.70197 5.89048 2.80509 5.93574 2.89542 6.00038L9.20173 9.62102V2.35617C9.20173 2.14787 9.28584 1.9481 9.43554 1.80081C9.58524 1.65353 9.78829 1.57078 10 1.57078C10.2117 1.57078 10.4148 1.65353 10.5645 1.80081C10.7142 1.9481 10.7983 2.14787 10.7983 2.35617V9.62102L17.0806 5.99252C17.2607 5.91245 17.4646 5.90094 17.6528 5.96022C17.841 6.01951 18.0002 6.14537 18.0995 6.31346C18.1988 6.48155 18.2312 6.67991 18.1905 6.87016C18.1498 7.06041 18.0387 7.22903 17.8789 7.34339L11.5965 10.9955L17.9028 14.6397C18.0814 14.7471 18.2099 14.9193 18.2606 15.1191C18.3114 15.3189 18.2804 15.5303 18.1743 15.7078Z" fill="white"/>
</svg>
