<svg width="20" height="22" viewBox="0 0 20 22" fill="none" xmlns="http://www.w3.org/2000/svg">
<path d="M10.0102 0C10.4822 0 10.9349 0.182988 11.2687 0.508709C11.6025 0.83443 11.79 1.2762 11.79 1.73684V7.99179L17.3405 4.86316C17.7491 4.63647 18.233 4.57669 18.6865 4.69686C19.1401 4.81703 19.5265 5.10739 19.7615 5.50458C19.9965 5.90178 20.061 6.37356 19.9409 6.81696C19.8207 7.26037 19.5258 7.63941 19.1203 7.87137L13.5698 11L19.1203 14.1275C19.5258 14.3594 19.8207 14.7385 19.9409 15.1819C20.061 15.6253 19.9965 16.0971 19.7615 16.4943C19.5265 16.8915 19.1401 17.1818 18.6865 17.302C18.233 17.4222 17.7491 17.3624 17.3405 17.1357L11.79 14.0094V20.2632C11.79 20.7238 11.6025 21.1656 11.2687 21.4913C10.9349 21.817 10.4822 22 10.0102 22C9.53819 22 9.0855 21.817 8.75173 21.4913C8.41795 21.1656 8.23044 20.7238 8.23044 20.2632V14.0082L2.6799 17.1368C2.47741 17.2527 2.25344 17.3283 2.02089 17.3593C1.78833 17.3904 1.55179 17.3762 1.32487 17.3176C1.09795 17.2591 0.885132 17.1573 0.69868 17.0182C0.512227 16.8791 0.355818 16.7053 0.238457 16.5069C0.121095 16.3086 0.0451002 16.0895 0.0148464 15.8624C-0.0154074 15.6352 0.00067785 15.4045 0.062176 15.1834C0.123674 14.9624 0.22937 14.7554 0.37318 14.5744C0.516989 14.3933 0.696071 14.2418 0.900115 14.1286L6.45066 11L0.900115 7.87253C0.494669 7.64057 0.199697 7.26153 0.0795685 6.81812C-0.0405597 6.37471 0.0239087 5.90294 0.258905 5.50574C0.493901 5.10855 0.880347 4.81818 1.33391 4.69802C1.78747 4.57785 2.27133 4.63763 2.6799 4.86432L8.23044 7.99063V1.73684C8.23044 1.2762 8.41795 0.83443 8.75173 0.508709C9.0855 0.182988 9.53819 0 10.0102 0Z" fill="white"/>
</svg>
